# Blender 3.6.2
# www.blender.org
mtllib budgetskyscraper3.mtl
o Cube
v 4.846431 21.790358 -4.846431
v 4.846431 -0.065883 -4.846431
v 4.846431 21.790358 4.846431
v 4.846431 -0.065883 4.846431
v -4.846431 21.790358 -4.846431
v -4.846431 -0.065883 -4.846431
v -4.846431 21.790358 4.846431
v -4.846431 -0.065883 4.846431
vn -0.0000 1.0000 -0.0000
vn -0.0000 -0.0000 1.0000
vn -1.0000 -0.0000 -0.0000
vn -0.0000 -1.0000 -0.0000
vn 1.0000 -0.0000 -0.0000
vn -0.0000 -0.0000 -1.0000
vt 0.184672 1.186270
vt 0.235328 1.074471
vt 0.235328 1.186270
vt 0.170322 -1.006655
vt 0.794678 2.100497
vt 0.170322 2.100497
vt 0.092880 -1.356787
vt 0.727120 1.799558
vt 0.092880 1.799558
vt 0.250000 1.295897
vt 0.500000 0.744141
vt 0.500000 1.295897
vt 0.173287 -1.091432
vt 0.831713 2.185275
vt 0.173287 2.185275
vt 0.203483 -1.003369
vt 0.826517 2.097212
vt 0.203483 2.097212
vt 0.184672 1.074471
vt 0.794678 -1.006655
vt 0.727120 -1.356787
vt 0.250000 0.744141
vt 0.831713 -1.091432
vt 0.826517 -1.003369
s 0
usemtl Skyscraper3
f 5/1/1 3/2/1 1/3/1
f 3/4/2 8/5/2 4/6/2
f 7/7/3 6/8/3 8/9/3
f 2/10/4 8/11/4 6/12/4
f 1/13/5 4/14/5 2/15/5
f 5/16/6 2/17/6 6/18/6
f 5/1/1 7/19/1 3/2/1
f 3/4/2 7/20/2 8/5/2
f 7/7/3 5/21/3 6/8/3
f 2/10/4 4/22/4 8/11/4
f 1/13/5 3/23/5 4/14/5
f 5/16/6 1/24/6 2/17/6
