# Blender 3.6.2
# www.blender.org
mtllib door.mtl
o Door
v -0.066078 -0.013336 0.122870
v -0.066078 3.191352 0.122870
v -0.066078 -0.013336 -0.122870
v -0.066078 3.191352 -0.122870
v 1.933922 -0.013336 0.122870
v 1.933922 3.191352 0.122870
v 1.933922 -0.013336 -0.122870
v 1.933922 3.191352 -0.122870
vn -1.0000 -0.0000 -0.0000
vn -0.0000 -0.0000 -1.0000
vn 1.0000 -0.0000 -0.0000
vn -0.0000 -0.0000 1.0000
vn -0.0000 -1.0000 -0.0000
vn -0.0000 1.0000 -0.0000
vt 0.000000 0.266839
vt 0.333333 0.422280
vt 0.000000 0.422280
vt 1.000000 1.001285
vt -0.000000 -0.001285
vt 1.000000 -0.001285
vt 0.804411 0.322005
vt 0.901145 0.367114
vt 0.804411 0.367114
vt 0.000000 0.001955
vt 1.000000 0.998045
vt 0.000000 0.998045
vt 0.000000 0.733161
vt 0.333333 0.577720
vt 0.333333 0.733161
vt 0.666667 0.422280
vt 1.000000 0.266839
vt 1.000000 0.422280
vt 0.333333 0.266839
vt 0.000000 1.001285
vt 0.901145 0.322005
vt 1.000000 0.001955
vt 0.000000 0.577720
vt 0.666667 0.266839
s 0
usemtl Door
f 2/1/1 3/2/1 1/3/1
f 4/4/2 7/5/2 3/6/2
f 8/7/3 5/8/3 7/9/3
f 6/10/4 1/11/4 5/12/4
f 7/13/5 1/14/5 3/15/5
f 4/16/6 6/17/6 8/18/6
f 2/1/1 4/19/1 3/2/1
f 4/4/2 8/20/2 7/5/2
f 8/7/3 6/21/3 5/8/3
f 6/10/4 2/22/4 1/11/4
f 7/13/5 5/23/5 1/14/5
f 4/16/6 2/24/6 6/17/6
