# Blender 3.6.2
# www.blender.org
mtllib hand.mtl
o Hand
v 0.041230 0.084128 -0.286827
v 0.041230 0.084128 0.066525
v 0.041230 -0.019819 -0.286827
v 0.041230 -0.019819 0.066525
v 0.041230 0.146251 -0.110151
v 0.041230 -0.113661 -0.110151
v 0.571333 0.106322 -0.110151
v 0.571333 0.064977 0.007434
v 0.571333 0.064977 -0.227735
v 0.571333 -0.004204 -0.227735
v 0.571333 -0.004204 0.007434
v 0.571333 -0.066659 -0.110151
v 0.041230 0.032154 -0.299948
v 0.041230 0.032154 0.094451
v 0.571333 0.030386 -0.240856
v 0.571333 0.030386 0.035359
v 0.841482 0.088832 -0.109789
v 0.700961 0.126466 -0.110568
v 0.700961 0.074638 0.036828
v 0.700961 0.031278 -0.274411
v 0.700961 -0.012082 -0.257963
v 0.700961 0.031278 0.071833
v 0.700961 -0.012082 0.036828
v 0.700961 -0.090371 -0.110568
v 0.700961 0.074638 -0.257963
v 0.841482 0.056588 -0.018087
v 0.841482 0.029612 -0.211723
v 0.841482 0.002635 -0.201490
v 0.841482 0.029612 0.003691
v 0.841482 0.002635 -0.018087
v 0.841482 -0.046072 -0.109789
v 0.841482 0.056588 -0.201490
v 0.841482 0.021380 -0.109789
vn 0.0709 0.9410 -0.3309
vn 0.1083 0.2433 -0.9639
vn -0.2330 -0.3449 -0.9093
vn -0.2179 0.6131 0.7594
vn 0.0962 -0.4711 0.8768
vn 0.0709 0.9410 0.3309
vn 0.0781 -0.8805 -0.4677
vn 0.0781 -0.8805 0.4677
vn 0.1088 0.6244 0.7735
vn -0.1580 -0.8721 0.4632
vn -0.1609 -0.8716 -0.4630
vn 0.1139 -0.3524 -0.9289
vn 0.3591 0.5863 0.7262
vn 0.3817 -0.3278 -0.8642
vn 0.2659 -0.8514 0.4522
vn 0.2705 -0.8502 -0.4516
vn -0.1461 0.9333 -0.3282
vn -0.2098 -0.6142 0.7608
vn -0.2375 0.3445 -0.9082
vn -0.1440 0.9335 0.3283
vn 1.0000 -0.0000 -0.0000
vn 0.2466 0.9142 -0.3215
vn 0.3469 -0.5892 0.7298
vn 0.2433 0.9150 0.3217
vn 0.3883 0.3268 -0.8616
vn -1.0000 -0.0000 -0.0000
vn 0.1162 0.3523 -0.9287
vn 0.1047 -0.6247 0.7738
vn 0.0993 0.4710 0.8765
vn 0.1067 -0.2434 -0.9640
vt 0.680500 0.561020
s 0
usemtl Hand
f 5/1/1 9/1/1 1/1/1
f 1/1/2 15/1/2 13/1/2
f 15/1/3 21/1/3 10/1/3
f 16/1/4 19/1/4 8/1/4
f 4/1/5 16/1/5 14/1/5
f 5/1/6 8/1/6 7/1/6
f 6/1/7 10/1/7 12/1/7
f 6/1/8 11/1/8 4/1/8
f 2/1/9 16/1/9 8/1/9
f 11/1/10 24/1/10 23/1/10
f 10/1/11 24/1/11 12/1/11
f 3/1/12 15/1/12 10/1/12
f 19/1/13 29/1/13 26/1/13
f 21/1/14 27/1/14 28/1/14
f 24/1/15 30/1/15 23/1/15
f 24/1/16 28/1/16 31/1/16
f 9/1/17 18/1/17 25/1/17
f 16/1/18 23/1/18 22/1/18
f 15/1/19 25/1/19 20/1/19
f 8/1/20 18/1/20 7/1/20
f 33/1/21 26/1/21 29/1/21
f 32/1/21 33/1/21 27/1/21
f 28/1/21 33/1/21 31/1/21
f 33/1/21 30/1/21 31/1/21
f 18/1/22 32/1/22 25/1/22
f 23/1/23 29/1/23 22/1/23
f 18/1/24 26/1/24 17/1/24
f 25/1/25 27/1/25 20/1/25
f 13/1/26 6/1/26 14/1/26
f 5/1/1 7/1/1 9/1/1
f 1/1/27 9/1/27 15/1/27
f 15/1/3 20/1/3 21/1/3
f 16/1/4 22/1/4 19/1/4
f 4/1/28 11/1/28 16/1/28
f 5/1/6 2/1/6 8/1/6
f 6/1/7 3/1/7 10/1/7
f 6/1/8 12/1/8 11/1/8
f 2/1/29 14/1/29 16/1/29
f 11/1/10 12/1/10 24/1/10
f 10/1/11 21/1/11 24/1/11
f 3/1/30 13/1/30 15/1/30
f 19/1/13 22/1/13 29/1/13
f 21/1/14 20/1/14 27/1/14
f 24/1/15 31/1/15 30/1/15
f 24/1/16 21/1/16 28/1/16
f 9/1/17 7/1/17 18/1/17
f 16/1/18 11/1/18 23/1/18
f 15/1/19 9/1/19 25/1/19
f 8/1/20 19/1/20 18/1/20
f 33/1/21 17/1/21 26/1/21
f 32/1/21 17/1/21 33/1/21
f 28/1/21 27/1/21 33/1/21
f 33/1/21 29/1/21 30/1/21
f 18/1/22 17/1/22 32/1/22
f 23/1/23 30/1/23 29/1/23
f 18/1/24 19/1/24 26/1/24
f 25/1/25 32/1/25 27/1/25
f 14/1/26 2/1/26 5/1/26
f 5/1/26 1/1/26 13/1/26
f 13/1/26 3/1/26 6/1/26
f 6/1/26 4/1/26 14/1/26
f 14/1/26 5/1/26 13/1/26
