# Blender 3.6.2
# www.blender.org
mtllib skybox.mtl
o Skybox
v 18.403112 18.403124 -18.403101
v 18.403112 -18.403101 -18.403124
v 18.403112 18.403101 18.403124
v 18.403112 -18.403124 18.403101
v -18.403112 18.403124 -18.403101
v -18.403112 -18.403101 -18.403124
v -18.403112 18.403101 18.403124
v -18.403112 -18.403124 18.403101
vn -0.0000 -1.0000 -0.0000
vn -0.0000 -0.0000 -1.0000
vn 1.0000 -0.0000 -0.0000
vn -0.0000 1.0000 -0.0000
vn -1.0000 -0.0000 -0.0000
vn -0.0000 -0.0000 1.0000
vt 0.254731 0.663757
vt 0.496576 0.986705
vt 0.496576 0.663757
vt 0.012885 0.340808
vt 0.254731 0.340808
vt 0.738422 0.340808
vt 0.980268 0.663757
vt 0.980268 0.340808
vt 0.254731 0.017859
vt 0.496576 0.340808
vt 0.496576 0.017859
vt 0.738422 0.663757
vt 0.254731 0.986705
vt 0.012885 0.663757
s 0
usemtl Skybox
f 3/1/1 5/2/1 1/3/1
f 8/4/2 3/1/2 4/5/2
f 6/6/3 7/7/3 8/8/3
f 8/9/4 2/10/4 6/11/4
f 4/5/5 1/3/5 2/10/5
f 2/10/6 5/12/6 6/6/6
f 3/1/1 7/13/1 5/2/1
f 8/4/2 7/14/2 3/1/2
f 6/6/3 5/12/3 7/7/3
f 8/9/4 4/5/4 2/10/4
f 4/5/5 3/1/5 1/3/5
f 2/10/6 1/3/6 5/12/6
