# Blender 3.6.2
# www.blender.org
mtllib tree.mtl
o Cylinder
v 0.000000 -0.075675 -0.220297
v 0.000000 3.409902 -0.220297
v 0.042978 -0.075675 -0.216064
v 0.042978 3.409902 -0.216064
v 0.084304 -0.075675 -0.203528
v 0.084304 3.409902 -0.203528
v 0.122390 -0.075675 -0.183170
v 0.122390 3.409902 -0.183170
v 0.155773 -0.075675 -0.155773
v 0.155773 3.409902 -0.155773
v 0.183170 -0.075675 -0.122390
v 0.183170 3.409902 -0.122390
v 0.203528 -0.075675 -0.084304
v 0.203528 3.409902 -0.084304
v 0.216064 -0.075675 -0.042978
v 0.216064 3.409902 -0.042978
v 0.220297 -0.075675 0.000000
v 0.220297 3.409902 0.000000
v 0.216064 -0.075675 0.042978
v 0.216064 3.409902 0.042978
v 0.203528 -0.075675 0.084304
v 0.203528 3.409902 0.084304
v 0.183170 -0.075675 0.122390
v 0.183170 3.409902 0.122390
v 0.155773 -0.075675 0.155773
v 0.155773 3.409902 0.155773
v 0.122390 -0.075675 0.183170
v 0.122390 3.409902 0.183170
v 0.084304 -0.075675 0.203528
v 0.084304 3.409902 0.203528
v 0.042978 -0.075675 0.216064
v 0.042978 3.409902 0.216064
v 0.000000 -0.075675 0.220297
v 0.000000 3.409902 0.220297
v -0.042978 -0.075675 0.216064
v -0.042978 3.409902 0.216064
v -0.084304 -0.075675 0.203528
v -0.084304 3.409902 0.203528
v -0.122390 -0.075675 0.183170
v -0.122390 3.409902 0.183170
v -0.155773 -0.075675 0.155773
v -0.155773 3.409902 0.155773
v -0.183170 -0.075675 0.122390
v -0.183170 3.409902 0.122390
v -0.203528 -0.075675 0.084304
v -0.203528 3.409902 0.084304
v -0.216064 -0.075675 0.042978
v -0.216064 3.409902 0.042978
v -0.220297 -0.075675 0.000000
v -0.220297 3.409902 0.000000
v -0.216064 -0.075675 -0.042978
v -0.216064 3.409902 -0.042978
v -0.203528 -0.075675 -0.084304
v -0.203528 3.409902 -0.084304
v -0.183170 -0.075675 -0.122390
v -0.183170 3.409902 -0.122390
v -0.155773 -0.075675 -0.155773
v -0.155773 3.409902 -0.155773
v -0.122390 -0.075675 -0.183170
v -0.122390 3.409902 -0.183170
v -0.084304 -0.075675 -0.203528
v -0.084304 3.409902 -0.203528
v -0.042978 -0.075675 -0.216064
v -0.042978 3.409902 -0.216064
v 0.000000 3.304356 -1.000000
v 0.195090 3.304356 -0.980785
v 0.382683 3.304356 -0.923880
v 0.555570 3.304356 -0.831470
v 0.707107 3.304356 -0.707107
v 0.831470 3.304356 -0.555570
v 0.923880 3.304356 -0.382683
v 0.980785 3.304356 -0.195090
v 1.000000 3.304356 0.000000
v 0.980785 3.304356 0.195090
v 0.923880 3.304356 0.382683
v 0.831470 3.304356 0.555570
v 0.707107 3.304356 0.707107
v 0.555570 3.304356 0.831470
v 0.382683 3.304356 0.923880
v 0.195090 3.304356 0.980785
v 0.000000 3.304356 1.000000
v -0.195090 3.304356 0.980785
v -0.382683 3.304356 0.923880
v -0.555570 3.304356 0.831470
v -0.707107 3.304356 0.707107
v -0.831470 3.304356 0.555570
v -0.923880 3.304356 0.382683
v -0.980785 3.304356 0.195090
v -1.000000 3.304356 0.000000
v -0.980785 3.304356 -0.195090
v -0.923880 3.304356 -0.382683
v -0.831470 3.304356 -0.555570
v -0.707107 3.304356 -0.707107
v -0.555570 3.304356 -0.831470
v -0.382683 3.304356 -0.923880
v -0.195090 3.304356 -0.980785
v 0.000000 5.304356 0.000000
v 0.000000 2.117880 -1.238658
v 0.241650 2.117880 -1.214857
v 0.474014 2.117880 -1.144370
v 0.688161 2.117880 -1.029906
v 0.875863 2.117880 -0.875863
v 1.029906 2.117880 -0.688161
v 1.144370 2.117880 -0.474014
v 1.214857 2.117880 -0.241650
v 1.238658 2.117880 0.000000
v 1.214857 2.117880 0.241650
v 1.144370 2.117880 0.474014
v 1.029906 2.117880 0.688161
v 0.875863 2.117880 0.875863
v 0.688161 2.117880 1.029906
v 0.474014 2.117880 1.144370
v 0.241650 2.117880 1.214857
v 0.000000 2.117880 1.238658
v -0.241650 2.117880 1.214857
v -0.474014 2.117880 1.144370
v -0.688161 2.117880 1.029906
v -0.875863 2.117880 0.875863
v -1.029906 2.117880 0.688161
v -1.144370 2.117880 0.474014
v -1.214857 2.117880 0.241650
v -1.238658 2.117880 0.000000
v -1.214857 2.117880 -0.241650
v -1.144370 2.117880 -0.474014
v -1.029906 2.117880 -0.688161
v -0.875863 2.117880 -0.875863
v -0.688161 2.117880 -1.029906
v -0.474014 2.117880 -1.144370
v -0.241650 2.117880 -1.214857
v 0.000000 4.595195 0.000000
v 0.000000 0.995683 -1.360631
v 0.265446 0.995683 -1.334486
v 0.520691 0.995683 -1.257059
v 0.755926 0.995683 -1.131323
v 0.962111 0.995683 -0.962111
v 1.131323 0.995683 -0.755926
v 1.257059 0.995683 -0.520691
v 1.334486 0.995683 -0.265446
v 1.360631 0.995683 0.000000
v 1.334486 0.995683 0.265446
v 1.257059 0.995683 0.520691
v 1.131323 0.995683 0.755926
v 0.962111 0.995683 0.962111
v 0.755926 0.995683 1.131323
v 0.520691 0.995683 1.257059
v 0.265446 0.995683 1.334486
v 0.000000 0.995683 1.360631
v -0.265446 0.995683 1.334486
v -0.520691 0.995683 1.257059
v -0.755926 0.995683 1.131323
v -0.962111 0.995683 0.962111
v -1.131323 0.995683 0.755926
v -1.257059 0.995683 0.520691
v -1.334486 0.995683 0.265446
v -1.360631 0.995683 0.000000
v -1.334486 0.995683 -0.265446
v -1.257059 0.995683 -0.520691
v -1.131323 0.995683 -0.755926
v -0.962111 0.995683 -0.962111
v -0.755926 0.995683 -1.131323
v -0.520691 0.995683 -1.257059
v -0.265446 0.995683 -1.334486
v 0.000000 3.716944 0.000000
vn 0.0980 -0.0000 -0.9952
vn 0.2903 -0.0000 -0.9569
vn 0.4714 -0.0000 -0.8819
vn 0.6344 -0.0000 -0.7730
vn 0.7730 -0.0000 -0.6344
vn 0.8819 -0.0000 -0.4714
vn 0.9569 -0.0000 -0.2903
vn 0.9952 -0.0000 -0.0980
vn 0.9952 -0.0000 0.0980
vn 0.9569 -0.0000 0.2903
vn 0.8819 -0.0000 0.4714
vn 0.7730 -0.0000 0.6344
vn 0.6344 -0.0000 0.7730
vn 0.4714 -0.0000 0.8819
vn 0.2903 -0.0000 0.9569
vn 0.0980 -0.0000 0.9952
vn -0.0980 -0.0000 0.9952
vn -0.2903 -0.0000 0.9569
vn -0.4714 -0.0000 0.8819
vn -0.6344 -0.0000 0.7730
vn -0.7730 -0.0000 0.6344
vn -0.8819 -0.0000 0.4714
vn -0.9569 -0.0000 0.2903
vn -0.9952 -0.0000 0.0980
vn -0.9952 -0.0000 -0.0980
vn -0.9569 -0.0000 -0.2903
vn -0.8819 -0.0000 -0.4714
vn -0.7730 -0.0000 -0.6344
vn -0.6344 -0.0000 -0.7730
vn -0.4714 -0.0000 -0.8819
vn -0.0000 1.0000 -0.0000
vn -0.2903 -0.0000 -0.9569
vn -0.0980 -0.0000 -0.9952
vn -0.0000 -1.0000 -0.0000
vn 0.0878 0.4455 -0.8910
vn 0.2599 0.4455 -0.8567
vn 0.4220 0.4455 -0.7896
vn 0.5680 0.4455 -0.6921
vn 0.6921 0.4455 -0.5680
vn 0.7896 0.4455 -0.4220
vn 0.8567 0.4455 -0.2599
vn 0.8910 0.4455 -0.0878
vn 0.8910 0.4455 0.0878
vn 0.8567 0.4455 0.2599
vn 0.7896 0.4455 0.4220
vn 0.6921 0.4455 0.5680
vn 0.5680 0.4455 0.6921
vn 0.4220 0.4455 0.7896
vn 0.2599 0.4455 0.8567
vn 0.0878 0.4455 0.8910
vn -0.0878 0.4455 0.8910
vn -0.2599 0.4455 0.8567
vn -0.4220 0.4455 0.7896
vn -0.5680 0.4455 0.6921
vn -0.6921 0.4455 0.5680
vn -0.7896 0.4455 0.4220
vn -0.8567 0.4455 0.2599
vn -0.8910 0.4455 0.0878
vn -0.8910 0.4455 -0.0878
vn -0.8567 0.4455 -0.2599
vn -0.7896 0.4455 -0.4220
vn -0.6921 0.4455 -0.5680
vn -0.5680 0.4455 -0.6921
vn -0.4220 0.4455 -0.7896
vn -0.2599 0.4455 -0.8567
vn -0.0878 0.4455 -0.8910
vt 1.000000 1.000000
vt 0.968750 0.500000
vt 1.000000 0.500000
vt 0.968750 1.000000
vt 0.937500 0.500000
vt 0.937500 1.000000
vt 0.906250 0.500000
vt 0.906250 1.000000
vt 0.875000 0.500000
vt 0.875000 1.000000
vt 0.843750 0.500000
vt 0.843750 1.000000
vt 0.812500 0.500000
vt 0.812500 1.000000
vt 0.781250 0.500000
vt 0.781250 1.000000
vt 0.750000 0.500000
vt 0.750000 1.000000
vt 0.718750 0.500000
vt 0.718750 1.000000
vt 0.687500 0.500000
vt 0.687500 1.000000
vt 0.656250 0.500000
vt 0.656250 1.000000
vt 0.625000 0.500000
vt 0.625000 1.000000
vt 0.593750 0.500000
vt 0.593750 1.000000
vt 0.562500 0.500000
vt 0.562500 1.000000
vt 0.531250 0.500000
vt 0.531250 1.000000
vt 0.500000 0.500000
vt 0.500000 1.000000
vt 0.468750 0.500000
vt 0.468750 1.000000
vt 0.437500 0.500000
vt 0.437500 1.000000
vt 0.406250 0.500000
vt 0.406250 1.000000
vt 0.375000 0.500000
vt 0.375000 1.000000
vt 0.343750 0.500000
vt 0.343750 1.000000
vt 0.312500 0.500000
vt 0.312500 1.000000
vt 0.281250 0.500000
vt 0.281250 1.000000
vt 0.250000 0.500000
vt 0.250000 1.000000
vt 0.218750 0.500000
vt 0.218750 1.000000
vt 0.187500 0.500000
vt 0.187500 1.000000
vt 0.156250 0.500000
vt 0.156250 1.000000
vt 0.125000 0.500000
vt 0.125000 1.000000
vt 0.093750 0.500000
vt 0.093750 1.000000
vt 0.062500 0.500000
vt 0.158156 0.028269
vt 0.471731 0.158156
vt 0.341844 0.471731
vt 0.062500 1.000000
vt 0.031250 0.500000
vt 0.031250 1.000000
vt 0.000000 0.500000
vt 0.796822 0.014612
vt 0.514612 0.203178
vt 0.703178 0.485388
vt 0.173717 0.839603
vt 0.173717 0.526371
vt 0.234826 0.833584
vt 0.293586 0.815759
vt 0.347739 0.786814
vt 0.395205 0.747859
vt 0.434160 0.700393
vt 0.463105 0.646240
vt 0.480930 0.587480
vt 0.486949 0.526371
vt 0.480930 0.465263
vt 0.463105 0.406503
vt 0.434160 0.352349
vt 0.395205 0.304883
vt 0.347739 0.265929
vt 0.293586 0.236983
vt 0.234826 0.219159
vt 0.173717 0.213140
vt 0.112609 0.219159
vt 0.053849 0.236983
vt -0.000305 0.265929
vt -0.047771 0.304883
vt -0.086725 0.352349
vt -0.115671 0.406503
vt -0.133495 0.465263
vt -0.139514 0.526371
vt -0.133495 0.587480
vt -0.115671 0.646240
vt -0.086725 0.700393
vt -0.047771 0.747859
vt -0.000305 0.786814
vt 0.053849 0.815759
vt 0.887391 0.219159
vt 0.519070 0.465263
vt 0.765174 0.833584
vt 0.112609 0.833584
vt 0.250000 0.490000
vt 0.250000 0.250000
vt 0.296822 0.485388
vt 0.383337 0.449553
vt 0.419706 0.419706
vt 0.449553 0.383337
vt 0.471731 0.341844
vt 0.485388 0.296822
vt 0.490000 0.250000
vt 0.485388 0.203178
vt 0.449553 0.116663
vt 0.419706 0.080294
vt 0.383337 0.050447
vt 0.341844 0.028269
vt 0.296822 0.014612
vt 0.250000 0.010000
vt 0.203178 0.014612
vt 0.116663 0.050447
vt 0.080294 0.080294
vt 0.050447 0.116663
vt 0.028269 0.158156
vt 0.014612 0.203178
vt 0.010000 0.250000
vt 0.014612 0.296822
vt 0.028269 0.341844
vt 0.050447 0.383337
vt 0.080294 0.419706
vt 0.116663 0.449553
vt 0.158156 0.471731
vt 0.203178 0.485388
vt 0.000000 1.000000
vt 0.750000 0.490000
vt 0.796822 0.485388
vt 0.841844 0.471731
vt 0.883337 0.449553
vt 0.919706 0.419706
vt 0.949553 0.383337
vt 0.971731 0.341844
vt 0.985388 0.296822
vt 0.990000 0.250000
vt 0.985388 0.203178
vt 0.971731 0.158156
vt 0.949553 0.116663
vt 0.919706 0.080294
vt 0.883337 0.050447
vt 0.841844 0.028269
vt 0.750000 0.010000
vt 0.703178 0.014612
vt 0.658156 0.028269
vt 0.616663 0.050447
vt 0.580294 0.080294
vt 0.550447 0.116663
vt 0.528269 0.158156
vt 0.510000 0.250000
vt 0.514612 0.296822
vt 0.528269 0.341844
vt 0.550447 0.383337
vt 0.580294 0.419706
vt 0.616663 0.449553
vt 0.658156 0.471731
vt 0.826283 0.839603
vt 0.887391 0.833584
vt 0.946151 0.815759
vt 1.000305 0.786814
vt 1.047771 0.747859
vt 1.086725 0.700393
vt 1.115671 0.646240
vt 1.133495 0.587480
vt 1.139514 0.526371
vt 1.133495 0.465263
vt 1.115671 0.406503
vt 1.086725 0.352349
vt 1.047771 0.304883
vt 1.000305 0.265929
vt 0.946151 0.236983
vt 0.826283 0.213140
vt 0.765174 0.219159
vt 0.706414 0.236983
vt 0.652261 0.265929
vt 0.604795 0.304883
vt 0.565840 0.352349
vt 0.536895 0.406503
vt 0.513051 0.526371
vt 0.519070 0.587480
vt 0.536895 0.646240
vt 0.565840 0.700393
vt 0.604795 0.747859
vt 0.652261 0.786814
vt 0.706414 0.815759
s 0
usemtl Bark
f 2/1/1 3/2/1 1/3/1
f 4/4/2 5/5/2 3/2/2
f 6/6/3 7/7/3 5/5/3
f 8/8/4 9/9/4 7/7/4
f 10/10/5 11/11/5 9/9/5
f 12/12/6 13/13/6 11/11/6
f 14/14/7 15/15/7 13/13/7
f 16/16/8 17/17/8 15/15/8
f 18/18/9 19/19/9 17/17/9
f 20/20/10 21/21/10 19/19/10
f 22/22/11 23/23/11 21/21/11
f 24/24/12 25/25/12 23/23/12
f 26/26/13 27/27/13 25/25/13
f 28/28/14 29/29/14 27/27/14
f 30/30/15 31/31/15 29/29/15
f 32/32/16 33/33/16 31/31/16
f 34/34/17 35/35/17 33/33/17
f 36/36/18 37/37/18 35/35/18
f 38/38/19 39/39/19 37/37/19
f 40/40/20 41/41/20 39/39/20
f 42/42/21 43/43/21 41/41/21
f 44/44/22 45/45/22 43/43/22
f 46/46/23 47/47/23 45/45/23
f 48/48/24 49/49/24 47/47/24
f 50/50/25 51/51/25 49/49/25
f 52/52/26 53/53/26 51/51/26
f 54/54/27 55/55/27 53/53/27
f 56/56/28 57/57/28 55/55/28
f 58/58/29 59/59/29 57/57/29
f 60/60/30 61/61/30 59/59/30
f 38/62/31 22/63/31 6/64/31
f 62/65/32 63/66/32 61/61/32
f 64/67/33 1/68/33 63/66/33
f 31/69/34 47/70/34 63/71/34
f 2/1/1 4/4/1 3/2/1
f 4/4/2 6/6/2 5/5/2
f 6/6/3 8/8/3 7/7/3
f 8/8/4 10/10/4 9/9/4
f 10/10/5 12/12/5 11/11/5
f 12/12/6 14/14/6 13/13/6
f 14/14/7 16/16/7 15/15/7
f 16/16/8 18/18/8 17/17/8
f 18/18/9 20/20/9 19/19/9
f 20/20/10 22/22/10 21/21/10
f 22/22/11 24/24/11 23/23/11
f 24/24/12 26/26/12 25/25/12
f 26/26/13 28/28/13 27/27/13
f 28/28/14 30/30/14 29/29/14
f 30/30/15 32/32/15 31/31/15
f 32/32/16 34/34/16 33/33/16
f 34/34/17 36/36/17 35/35/17
f 36/36/18 38/38/18 37/37/18
f 38/38/19 40/40/19 39/39/19
f 40/40/20 42/42/20 41/41/20
f 42/42/21 44/44/21 43/43/21
f 44/44/22 46/46/22 45/45/22
f 46/46/23 48/48/23 47/47/23
f 48/48/24 50/50/24 49/49/24
f 50/50/25 52/52/25 51/51/25
f 52/52/26 54/54/26 53/53/26
f 54/54/27 56/56/27 55/55/27
f 56/56/28 58/58/28 57/57/28
f 58/58/29 60/60/29 59/59/29
f 60/60/30 62/65/30 61/61/30
f 6/64/31 4/110/31 2/108/31
f 2/108/31 64/137/31 62/136/31
f 62/136/31 60/135/31 58/134/31
f 58/134/31 56/133/31 54/132/31
f 54/132/31 52/131/31 50/130/31
f 50/130/31 48/129/31 46/128/31
f 46/128/31 44/127/31 42/126/31
f 42/126/31 40/125/31 38/62/31
f 38/62/31 36/124/31 34/123/31
f 34/123/31 32/122/31 30/121/31
f 30/121/31 28/120/31 26/119/31
f 26/119/31 24/118/31 22/63/31
f 22/63/31 20/117/31 18/116/31
f 18/116/31 16/115/31 14/114/31
f 14/114/31 12/113/31 10/112/31
f 10/112/31 8/111/31 6/64/31
f 6/64/31 2/108/31 62/136/31
f 62/136/31 58/134/31 54/132/31
f 54/132/31 50/130/31 46/128/31
f 46/128/31 42/126/31 38/62/31
f 38/62/31 34/123/31 30/121/31
f 30/121/31 26/119/31 22/63/31
f 22/63/31 18/116/31 14/114/31
f 14/114/31 10/112/31 6/64/31
f 6/64/31 62/136/31 54/132/31
f 54/132/31 46/128/31 38/62/31
f 38/62/31 30/121/31 22/63/31
f 22/63/31 14/114/31 6/64/31
f 6/64/31 54/132/31 38/62/31
f 62/65/32 64/67/32 63/66/32
f 64/67/33 2/138/33 1/68/33
f 63/71/34 1/139/34 3/140/34
f 3/140/34 5/141/34 7/142/34
f 7/142/34 9/143/34 11/144/34
f 11/144/34 13/145/34 15/146/34
f 15/146/34 17/147/34 19/148/34
f 19/148/34 21/149/34 23/150/34
f 23/150/34 25/151/34 27/152/34
f 27/152/34 29/153/34 31/69/34
f 31/69/34 33/154/34 35/155/34
f 35/155/34 37/156/34 39/157/34
f 39/157/34 41/158/34 43/159/34
f 43/159/34 45/160/34 47/70/34
f 47/70/34 49/161/34 51/162/34
f 51/162/34 53/163/34 55/164/34
f 55/164/34 57/165/34 59/166/34
f 59/166/34 61/167/34 63/71/34
f 63/71/34 3/140/34 7/142/34
f 7/142/34 11/144/34 15/146/34
f 15/146/34 19/148/34 23/150/34
f 23/150/34 27/152/34 31/69/34
f 31/69/34 35/155/34 39/157/34
f 39/157/34 43/159/34 47/70/34
f 47/70/34 51/162/34 55/164/34
f 55/164/34 59/166/34 63/71/34
f 63/71/34 7/142/34 15/146/34
f 15/146/34 23/150/34 31/69/34
f 31/69/34 39/157/34 47/70/34
f 47/70/34 55/164/34 63/71/34
f 63/71/34 15/146/34 31/69/34
usemtl Needles
f 65/72/35 97/73/35 66/74/35
f 66/74/36 97/73/36 67/75/36
f 67/75/37 97/73/37 68/76/37
f 68/76/38 97/73/38 69/77/38
f 69/77/39 97/73/39 70/78/39
f 70/78/40 97/73/40 71/79/40
f 71/79/41 97/73/41 72/80/41
f 72/80/42 97/73/42 73/81/42
f 73/81/43 97/73/43 74/82/43
f 74/82/44 97/73/44 75/83/44
f 75/83/45 97/73/45 76/84/45
f 76/84/46 97/73/46 77/85/46
f 77/85/47 97/73/47 78/86/47
f 78/86/48 97/73/48 79/87/48
f 79/87/49 97/73/49 80/88/49
f 80/88/50 97/73/50 81/89/50
f 81/89/51 97/73/51 82/90/51
f 82/90/52 97/73/52 83/91/52
f 83/91/53 97/73/53 84/92/53
f 84/92/54 97/73/54 85/93/54
f 85/93/55 97/73/55 86/94/55
f 86/94/56 97/73/56 87/95/56
f 87/95/57 97/73/57 88/96/57
f 88/96/58 97/73/58 89/97/58
f 89/97/59 97/73/59 90/98/59
f 90/98/60 97/73/60 91/99/60
f 91/99/61 97/73/61 92/100/61
f 92/100/62 97/73/62 93/101/62
f 93/101/63 97/73/63 94/102/63
f 94/102/64 97/73/64 95/103/64
f 80/104/34 88/105/34 96/106/34
f 95/103/65 97/73/65 96/107/65
f 96/107/66 97/73/66 65/72/66
f 98/108/35 130/109/35 99/110/35
f 99/110/36 130/109/36 100/64/36
f 100/64/37 130/109/37 101/111/37
f 101/111/38 130/109/38 102/112/38
f 102/112/39 130/109/39 103/113/39
f 103/113/40 130/109/40 104/114/40
f 104/114/41 130/109/41 105/115/41
f 105/115/42 130/109/42 106/116/42
f 106/116/43 130/109/43 107/117/43
f 107/117/44 130/109/44 108/63/44
f 108/63/45 130/109/45 109/118/45
f 109/118/46 130/109/46 110/119/46
f 110/119/47 130/109/47 111/120/47
f 111/120/48 130/109/48 112/121/48
f 112/121/49 130/109/49 113/122/49
f 113/122/50 130/109/50 114/123/50
f 114/123/51 130/109/51 115/124/51
f 115/124/52 130/109/52 116/62/52
f 116/62/53 130/109/53 117/125/53
f 117/125/54 130/109/54 118/126/54
f 118/126/55 130/109/55 119/127/55
f 119/127/56 130/109/56 120/128/56
f 120/128/57 130/109/57 121/129/57
f 121/129/58 130/109/58 122/130/58
f 122/130/59 130/109/59 123/131/59
f 123/131/60 130/109/60 124/132/60
f 124/132/61 130/109/61 125/133/61
f 125/133/62 130/109/62 126/134/62
f 126/134/63 130/109/63 127/135/63
f 127/135/64 130/109/64 128/136/64
f 113/69/34 121/70/34 129/71/34
f 128/136/65 130/109/65 129/137/65
f 129/137/66 130/109/66 98/108/66
f 131/108/35 163/109/35 132/110/35
f 132/110/36 163/109/36 133/64/36
f 133/64/37 163/109/37 134/111/37
f 134/111/38 163/109/38 135/112/38
f 135/112/39 163/109/39 136/113/39
f 136/113/40 163/109/40 137/114/40
f 137/114/41 163/109/41 138/115/41
f 138/115/42 163/109/42 139/116/42
f 139/116/43 163/109/43 140/117/43
f 140/117/44 163/109/44 141/63/44
f 141/63/45 163/109/45 142/118/45
f 142/118/46 163/109/46 143/119/46
f 143/119/47 163/109/47 144/120/47
f 144/120/48 163/109/48 145/121/48
f 145/121/49 163/109/49 146/122/49
f 146/122/50 163/109/50 147/123/50
f 147/123/51 163/109/51 148/124/51
f 148/124/52 163/109/52 149/62/52
f 149/62/53 163/109/53 150/125/53
f 150/125/54 163/109/54 151/126/54
f 151/126/55 163/109/55 152/127/55
f 152/127/56 163/109/56 153/128/56
f 153/128/57 163/109/57 154/129/57
f 154/129/58 163/109/58 155/130/58
f 155/130/59 163/109/59 156/131/59
f 156/131/60 163/109/60 157/132/60
f 157/132/61 163/109/61 158/133/61
f 158/133/62 163/109/62 159/134/62
f 159/134/63 163/109/63 160/135/63
f 160/135/64 163/109/64 161/136/64
f 146/69/34 154/70/34 162/71/34
f 161/136/65 163/109/65 162/137/65
f 162/137/66 163/109/66 131/108/66
f 96/106/34 65/168/34 66/169/34
f 66/169/34 67/170/34 68/171/34
f 68/171/34 69/172/34 70/173/34
f 70/173/34 71/174/34 72/175/34
f 72/175/34 73/176/34 74/177/34
f 74/177/34 75/178/34 76/179/34
f 76/179/34 77/180/34 78/181/34
f 78/181/34 79/182/34 80/104/34
f 80/104/34 81/183/34 82/184/34
f 82/184/34 83/185/34 84/186/34
f 84/186/34 85/187/34 86/188/34
f 86/188/34 87/189/34 88/105/34
f 88/105/34 89/190/34 90/191/34
f 90/191/34 91/192/34 92/193/34
f 92/193/34 93/194/34 94/195/34
f 94/195/34 95/196/34 96/106/34
f 96/106/34 66/169/34 68/171/34
f 68/171/34 70/173/34 72/175/34
f 72/175/34 74/177/34 76/179/34
f 76/179/34 78/181/34 80/104/34
f 80/104/34 82/184/34 84/186/34
f 84/186/34 86/188/34 88/105/34
f 88/105/34 90/191/34 92/193/34
f 92/193/34 94/195/34 96/106/34
f 96/106/34 68/171/34 72/175/34
f 72/175/34 76/179/34 80/104/34
f 80/104/34 84/186/34 88/105/34
f 88/105/34 92/193/34 96/106/34
f 96/106/34 72/175/34 80/104/34
f 129/71/34 98/139/34 99/140/34
f 99/140/34 100/141/34 101/142/34
f 101/142/34 102/143/34 103/144/34
f 103/144/34 104/145/34 105/146/34
f 105/146/34 106/147/34 107/148/34
f 107/148/34 108/149/34 109/150/34
f 109/150/34 110/151/34 111/152/34
f 111/152/34 112/153/34 113/69/34
f 113/69/34 114/154/34 115/155/34
f 115/155/34 116/156/34 117/157/34
f 117/157/34 118/158/34 119/159/34
f 119/159/34 120/160/34 121/70/34
f 121/70/34 122/161/34 123/162/34
f 123/162/34 124/163/34 125/164/34
f 125/164/34 126/165/34 127/166/34
f 127/166/34 128/167/34 129/71/34
f 129/71/34 99/140/34 101/142/34
f 101/142/34 103/144/34 105/146/34
f 105/146/34 107/148/34 109/150/34
f 109/150/34 111/152/34 113/69/34
f 113/69/34 115/155/34 117/157/34
f 117/157/34 119/159/34 121/70/34
f 121/70/34 123/162/34 125/164/34
f 125/164/34 127/166/34 129/71/34
f 129/71/34 101/142/34 105/146/34
f 105/146/34 109/150/34 113/69/34
f 113/69/34 117/157/34 121/70/34
f 121/70/34 125/164/34 129/71/34
f 129/71/34 105/146/34 113/69/34
f 162/71/34 131/139/34 132/140/34
f 132/140/34 133/141/34 134/142/34
f 134/142/34 135/143/34 136/144/34
f 136/144/34 137/145/34 138/146/34
f 138/146/34 139/147/34 140/148/34
f 140/148/34 141/149/34 142/150/34
f 142/150/34 143/151/34 144/152/34
f 144/152/34 145/153/34 146/69/34
f 146/69/34 147/154/34 148/155/34
f 148/155/34 149/156/34 150/157/34
f 150/157/34 151/158/34 152/159/34
f 152/159/34 153/160/34 154/70/34
f 154/70/34 155/161/34 156/162/34
f 156/162/34 157/163/34 158/164/34
f 158/164/34 159/165/34 160/166/34
f 160/166/34 161/167/34 162/71/34
f 162/71/34 132/140/34 134/142/34
f 134/142/34 136/144/34 138/146/34
f 138/146/34 140/148/34 142/150/34
f 142/150/34 144/152/34 146/69/34
f 146/69/34 148/155/34 150/157/34
f 150/157/34 152/159/34 154/70/34
f 154/70/34 156/162/34 158/164/34
f 158/164/34 160/166/34 162/71/34
f 162/71/34 134/142/34 138/146/34
f 138/146/34 142/150/34 146/69/34
f 146/69/34 150/157/34 154/70/34
f 154/70/34 158/164/34 162/71/34
f 162/71/34 138/146/34 146/69/34
